<svg height="512pt" viewBox="-11 0 512 512" width="512pt" xmlns="http://www.w3.org/2000/svg"><path d="m444.230469 409.609375c28.804687-40.171875 45.769531-89.40625 45.769531-142.609375 0-135.308594-109.691406-245-245-245s-245 109.691406-245 245c0 53.203125 16.964844 102.4375 45.769531 142.609375zm0 0" fill="#1d3ba8"/><path d="m444.949219 122.089844c0-1.773438-.089844-3.535156-.246094-5.289063-9.257813-17.746093-25.703125-21.226562-34.164063-21.785156h-42.992187c-9.726563 0-17.613281-7.886719-17.613281-17.613281v-47.191406c0-19.136719-13.667969-27.070313-20.371094-29.8125-2.214844-.253907-4.449219-.398438-6.703125-.398438h-259.867187c-9.910157 0-17.941407 8.03125-17.941407 17.941406v390.667969c44.386719 62.5625 117.398438 103.390625 199.949219 103.390625s155.5625-40.828125 199.949219-103.390625c0-126.625 0-277.976563 0-286.519531zm0 0" fill="#f95d95"/><path d="m366.519531 96.113281c-9.765625 0-17.683593-7.917969-17.683593-17.683593v-46.742188h-272.097657v413.378906c43.890625 41.488282 103.101563 66.933594 168.261719 66.933594s124.371094-25.445312 168.261719-66.933594v-348.574218c-1.296875-.1875-2.5-.308594-3.574219-.378907zm0 0" fill="#ef4a8a"/><path d="m139.167969 488.015625v-456.328125s-18.75-15.691406 0-31.6875h-76.175781c-9.886719 0-17.941407 8.011719-17.941407 17.941406v390.667969c24.003907 33.832031 56.386719 61.304687 94.117188 79.40625zm0 0" fill="#ef4a8a"/><path d="m139.167969 31.6875h-62.429688v413.378906c18.355469 17.351563 39.398438 31.882813 62.429688 42.933594zm0 0" fill="#e5387f"/><path d="m427.667969 80.363281c-17.035157-17.035156-38.53125-38.53125-63.082031-63.078125-4.726563-4.726562-10.652344-8.949218-17.28125-11.96875-7.605469-3.460937-15.925782-5.316406-24.445313-5.316406 0 0 24.445313 5.808594 24.445313 31.628906v48.074219c0 9.910156 8.03125 17.945313 17.941406 17.945313h43.796875c8.964843.589843 26.742187 4.398437 35.90625 24.441406 0-15.800782-6.40625-30.851563-17.28125-41.726563zm0 0" fill="#e8f3fc"/><path d="m385.304688 80.703125v-42.703125c-6.625-6.625-13.535157-13.535156-20.714844-20.71875-4.726563-4.722656-10.65625-8.949219-17.285156-11.964844-7.605469-3.460937-15.925782-5.316406-24.445313-5.316406 0 0 24.445313 5.808594 24.445313 31.628906v48.074219c0 9.910156 8.03125 17.945313 17.941406 17.945313h32.136718c-7.027343-2.433594-12.078124-9.089844-12.078124-16.945313zm0 0" fill="#b7dbf6"/><g fill="#fe99b8"><path d="m157.753906 371.601562h-21.109375c-6.480469 0-11.734375-5.253906-11.734375-11.738281 0-6.480469 5.253906-11.734375 11.734375-11.734375h21.109375c9.695313 0 17.582032-6.292968 17.582032-14.027344v-8.84375c0-7.730468-7.886719-14.023437-17.582032-14.023437-22.640625 0-41.0625-16.820313-41.0625-37.496094v-8.84375c0-20.675781 18.421875-37.496093 41.0625-37.496093h21.105469c6.480469 0 11.734375 5.253906 11.734375 11.734374 0 6.484376-5.253906 11.738282-11.734375 11.738282h-21.105469c-9.699218 0-17.585937 6.289062-17.585937 14.023437v8.84375c0 7.734375 7.886719 14.023438 17.585937 14.023438 22.636719 0 41.058594 16.824219 41.058594 37.5v8.84375c0 20.675781-18.421875 37.496093-41.058594 37.496093zm0 0"/><path d="m240.113281 371.601562c-5.414062 0-10.125-3.703124-11.402343-8.96875l-29.324219-120.726562c-1.527344-6.300781 2.335937-12.648438 8.636719-14.175781 6.292968-1.53125 12.644531 2.335937 14.175781 8.632812l17.914062 73.769531 17.917969-73.769531c1.53125-6.296875 7.875-10.160156 14.175781-8.632812 6.296875 1.527343 10.164063 7.875 8.632813 14.175781l-29.320313 120.726562c-1.277343 5.265626-5.992187 8.96875-11.40625 8.96875zm0 0"/><path d="m341.144531 371.601562h-17.792969c-17.734374 0-32.160156-14.429687-32.160156-32.164062v-79.878906c0-17.734375 14.425782-32.160156 32.160156-32.160156h17.792969c17.734375 0 32.160157 14.425781 32.160157 32.160156 0 6.480468-5.253907 11.738281-11.734376 11.738281-6.484374 0-11.738281-5.257813-11.738281-11.738281 0-4.789063-3.898437-8.6875-8.6875-8.6875h-17.792969c-4.792968 0-8.691406 3.898437-8.691406 8.6875v79.878906c0 4.792969 3.898438 8.691406 8.691406 8.691406h17.792969c4.789063 0 8.6875-3.898437 8.6875-8.691406v-28.203125h-17.585937c-6.480469 0-11.734375-5.253906-11.734375-11.734375 0-6.484375 5.253906-11.738281 11.734375-11.738281h23.058594c9.925781 0 18 8.074219 18 18v33.675781c0 17.734375-14.425782 32.164062-32.160157 32.164062zm0 0"/></g></svg>